<svg width="123" height="123" viewBox="0 0 123 123" fill="none" xmlns="http://www.w3.org/2000/svg">
<circle cx="61.5" cy="61.5" r="61.5" fill="white"/>
<path d="M63.0721 59.9632C48.8207 62.5404 26.2969 64.7461 26.2969 64.7461L28.5142 77.0074L30.7315 89.2686C30.7315 89.2686 52.6012 83.4462 66.8526 80.869C81.104 78.2918 103.628 76.0862 103.628 76.0862L101.41 63.8249L99.1932 51.5636C99.1932 51.5636 77.3235 57.386 63.0721 59.9632Z" fill="#FFF5CB"/>
<ellipse cx="28.503" cy="77.0234" rx="3.96775" ry="12.4323" transform="rotate(-10.2505 28.503 77.0234)" fill="#F1C40F"/>
<ellipse cx="101.417" cy="63.7812" rx="3.96775" ry="12.4323" transform="rotate(-10.2505 101.417 63.7812)" fill="#FFF5CB"/>
<path d="M55.4653 61.2026L63.072 59.9633L70.6309 58.4601C70.6309 58.4601 73.107 64.6417 73.8603 68.8071C74.6135 72.9725 74.4592 79.6297 74.4592 79.6297L66.8526 80.8691L59.2936 82.3723C59.2936 82.3723 59.6692 75.6868 58.9138 71.51C58.1585 67.3331 55.4653 61.2026 55.4653 61.2026Z" fill="#C0392B"/>
<rect x="68.3713" y="81.1516" width="4.45502" height="11.1376" rx="1.39219" transform="rotate(-30.2505 68.3713 81.1516)" fill="#C0392B"/>
<rect x="63.9849" y="80.3965" width="4.45502" height="11.1376" rx="1.39219" transform="rotate(9.74951 63.9849 80.3965)" fill="#C0392B"/>
<circle cx="67.2586" cy="74.9385" r="8.67337" transform="rotate(-10.2505 67.2586 74.9385)" fill="#E74C3C"/>
<path d="M62.3096 24.2348C61.9595 24.0849 61.5633 24.0849 61.2133 24.2348L18.9875 42.3224C17.8622 42.8044 17.8622 44.3998 18.9875 44.8818L61.2133 62.9694C61.5633 63.1193 61.9595 63.1193 62.3096 62.9694L104.535 44.8818C105.661 44.3998 105.661 42.8044 104.535 42.3224L62.3096 24.2348Z" fill="#2C3E50"/>
<path d="M43.3706 43.6021V60.726H80.1245V43.6021H43.3706Z" fill="#34495E"/>
<ellipse cx="61.7476" cy="60.7399" rx="18.377" ry="5.52701" fill="#2C3E50"/>
<ellipse cx="61.7476" cy="44.507" rx="18.377" ry="5.52701" fill="#34495E"/>
<rect x="26.1353" y="38.0891" width="1.36435" height="11.054" rx="0.556878" fill="#F1C40F"/>
<rect x="25.1606" y="47.8345" width="3.28558" height="4.39933" rx="1.39219" fill="#EED673"/>
</svg>
