<svg width="123" height="123" viewBox="0 0 123 123" fill="none" xmlns="http://www.w3.org/2000/svg">
<circle cx="61.5" cy="61.5" r="61.5" fill="white"/>
<path d="M46.4666 16.3844C39.875 17.3537 30.7844 23.1022 30.7844 23.1022L32.2832 33.294L32.3017 33.42C32.3017 33.42 41.3922 27.6715 47.9839 26.7021L46.4666 16.3844Z" fill="#ECF0F1"/>
<path d="M49.4641 36.7679C56.0557 35.7986 66.4163 38.6867 66.4163 38.6867L64.9361 28.6209C64.9361 28.6209 54.5755 25.7328 47.9839 26.7021L49.4641 36.7679Z" fill="#ECF0F1"/>
<path d="M80.371 20.2219C73.7793 21.1913 63.4188 18.3032 63.4188 18.3032L64.9361 28.6209C64.9361 28.6209 75.2966 31.509 81.8883 30.5397L80.371 20.2219Z" fill="#ECF0F1"/>
<path d="M83.3685 40.6055C89.9601 39.6362 99.0506 33.8877 99.0506 33.8877L97.5704 23.8219C97.5704 23.8219 88.4799 29.5703 81.8883 30.5397L83.3685 40.6055Z" fill="#ECF0F1"/>
<path d="M83.3685 40.6055C76.7769 41.5748 66.4163 38.6867 66.4163 38.6867L67.9521 49.1304C67.9521 49.1304 78.3127 52.0185 84.9043 51.0492L83.3685 40.6055Z" fill="#ECF0F1"/>
<path d="M52.5357 57.6553C59.1273 56.686 69.4879 59.5741 69.4879 59.5741L67.9521 49.1304C67.9521 49.1304 57.5915 46.2423 50.9999 47.2116L52.5357 57.6553Z" fill="#ECF0F1"/>
<path d="M49.4641 36.7679C42.8725 37.7373 33.782 43.4858 33.782 43.4858L35.3178 53.9295C35.3178 53.9295 44.4083 48.181 50.9999 47.2116L49.4641 36.7679Z" fill="#ECF0F1"/>
<path d="M86.4401 61.4929C93.0317 60.5235 102.122 54.775 102.122 54.775L100.605 44.4573L100.586 44.3314C100.586 44.3314 91.4959 50.0798 84.9043 51.0492L86.4401 61.4929Z" fill="#ECF0F1"/>
<path d="M33.782 43.4858C33.782 43.4858 42.8725 37.7373 49.4641 36.7679L47.9839 26.7021C41.3922 27.6715 32.3017 33.42 32.3017 33.42L33.782 43.4858Z" fill="#E38278"/>
<path d="M66.4163 38.6867C66.4163 38.6867 56.0557 35.7986 49.4641 36.7679L50.9999 47.2116C57.5915 46.2423 67.9521 49.1304 67.9521 49.1304L66.4163 38.6867Z" fill="#E38278"/>
<path d="M36.8536 64.3732C36.8536 64.3732 45.9441 58.6247 52.5357 57.6553L50.9999 47.2116C44.4083 48.181 35.3178 53.9295 35.3178 53.9295L36.8536 64.3732Z" fill="#E38278"/>
<path d="M69.4879 59.5741C69.4879 59.5741 79.8485 62.4622 86.4401 61.4929L84.9043 51.0492C78.3127 52.0185 67.9521 49.1304 67.9521 49.1304L69.4879 59.5741Z" fill="#E38278"/>
<path d="M99.0506 33.8877C99.0506 33.8877 89.9601 39.6362 83.3685 40.6055L84.9043 51.0492C91.4959 50.0798 100.586 44.3314 100.586 44.3314L99.0877 34.1396L99.0506 33.8877Z" fill="#E38278"/>
<path d="M66.4163 38.6867C66.4163 38.6867 76.7769 41.5748 83.3685 40.6055L81.8883 30.5397C75.2966 31.509 64.9361 28.6209 64.9361 28.6209L66.4163 38.6867Z" fill="#E38278"/>
<path d="M96.0531 13.5041C96.0531 13.5041 86.9626 19.2526 80.371 20.2219L81.8883 30.5397C88.4799 29.5703 97.5704 23.8219 97.5704 23.8219L96.0531 13.5041Z" fill="#E38278"/>
<path d="M63.4188 18.3032C63.4188 18.3032 53.0582 15.4151 46.4666 16.3844L47.9839 26.7021C54.5755 25.7328 64.9361 28.6209 64.9361 28.6209L63.4188 18.3032Z" fill="#E38278"/>
<path d="M25.6593 23.8593L30.827 23.0993L42.971 105.68L37.8032 106.44L25.6593 23.8593Z" fill="#2C3E50"/>
<path d="M25.6593 23.8593L30.827 23.0993C30.6172 21.6723 29.2902 20.6856 27.8632 20.8954C26.4361 21.1053 25.4494 22.4322 25.6593 23.8593Z" fill="#2C3E50"/>
<path d="M61.5 123C48.7133 123 36.8379 119.098 27 112.419C27 112.419 32.8432 108.063 37 106C41.8123 103.612 45.0713 103.638 50 101.5C54.6472 99.4844 56.5971 96.7733 61.5 95.5C66.9808 94.0766 70.3374 95.5 76 95.5C82.2484 95.5 85.7718 96.0022 92 95.5C98.9114 94.9427 109.5 92.5 109.5 92.5L113.721 94C102.861 111.413 83.5336 123 61.5 123Z" fill="#78C2A4"/>
</svg>
