<svg xmlns="http://www.w3.org/2000/svg" xmlns:xlink="http://www.w3.org/1999/xlink" viewBox="0 0 159.21 185.69"><defs><style>.a{stroke-miterlimit:10;fill:url(#a);stroke:url(#b);}</style><linearGradient id="a" x1="0.5" y1="92.84" x2="158.71" y2="92.84" gradientUnits="userSpaceOnUse"><stop offset="0" stop-color="#f39c12"/><stop offset="1" stop-color="#d35400"/></linearGradient><linearGradient id="b" y1="92.84" x2="159.21" y2="92.84" gradientUnits="userSpaceOnUse"><stop offset="0" stop-color="#fff"/><stop offset="1" stop-color="#fff"/></linearGradient></defs><title>Asset 3</title><path class="a" d="M148.78,162.1h-9.56c5.62-6.64,9.56-15.19,9.56-23.09,0-9.57-6.82-19-14.79-22V81.3h14.79c6.3,0,11-6.82,9.71-14C155.27,49.71,144.72,35.13,129,35.13V23.59c-14.84,0-22.94,22.62-27.63,39.06L81.19,133.54a2.4,2.4,0,0,1-3.12,1.82l-4.7-1.82a3,3,0,0,1-1.56-3.65L82.48,92.43C97.07,41.22,66.68.5,40,.5,18.2.5.5,21.17.5,46.67S18.2,92.84,40,92.84c.08,0,.16,0,.25,0a63.65,63.65,0,0,0-10.12,35.91c.59,31.89,24.67,56.47,52,56.47h71.56c2.73,0,4.95-2.59,4.95-5.78v-5.77c0-6.37-4.43-11.54-9.89-11.54ZM134,52.44c2.73,0,4.94,2.59,4.94,5.77S136.68,64,134,64,129,61.4,129,58.21,131.23,52.44,134,52.44Z"/><path d="M148.56,80.72c-1.22-.67-.76-5.16,1.18-8.66,2.41-4.34,7-6.94,8-6.17.19.15.26.83.4,2.19a14.65,14.65,0,0,1,.1,2,12.85,12.85,0,0,1-.3,2.46,12.11,12.11,0,0,1-1.85,4.18,9.67,9.67,0,0,1-3.31,3,8.72,8.72,0,0,1-2.86,1C149.15,80.79,148.79,80.84,148.56,80.72Z"/></svg>