<svg preserveAspectRatio="xMinYMin slice" viewBox="0 0 1252 1426" fill="none" xmlns="http://www.w3.org/2000/svg">
<g filter="url(#filter0_d)">
<line x1="78.5" y1="336.077" x2="78.5" y2="77.9999" stroke="#8CCCF7" stroke-width="5"/>
</g>
<g filter="url(#filter1_d)">
<line x1="78" y1="1120" x2="78" y2="312" stroke="#8CCCF7" stroke-width="5"/>
</g>
<g filter="url(#filter2_d)">
<line x1="75.5" y1="1362" x2="75.5" y2="1097" stroke="#8CCCF7" stroke-width="5"/>
</g>
<g filter="url(#filter3_d)">
<path d="M169.022 801.5H78M169.022 801.5V908.5H281M169.022 801.5V700H258" stroke="#8CCCF7" stroke-width="5" stroke-dasharray="10 8"/>
</g>
<g filter="url(#filter4_d)">
<path d="M99 336V491H238" stroke="#F59086" stroke-width="5" stroke-miterlimit="3.86874" stroke-dasharray="10 8"/>
</g>
<g filter="url(#filter5_d)">
<circle cx="81" cy="81" r="75" fill="#5FAADD"/>
</g>
<g filter="url(#filter6_d)">
<circle cx="80.5" cy="81.5" r="61.5" fill="white"/>
</g>
<path d="M65.4666 36.3843C58.875 37.3536 49.7844 43.1021 49.7844 43.1021L51.2832 53.2939L51.3017 53.4198C51.3017 53.4198 60.3922 47.6714 66.9839 46.702L65.4666 36.3843Z" fill="#ECF0F1"/>
<path d="M68.4641 56.7678C75.0557 55.7985 85.4163 58.6866 85.4163 58.6866L83.9361 48.6208C83.9361 48.6208 73.5755 45.7327 66.9839 46.702L68.4641 56.7678Z" fill="#ECF0F1"/>
<path d="M99.371 40.2218C92.7793 41.1912 82.4188 38.3031 82.4188 38.3031L83.9361 48.6208C83.9361 48.6208 94.2966 51.5089 100.888 50.5396L99.371 40.2218Z" fill="#ECF0F1"/>
<path d="M102.368 60.6054C108.96 59.636 118.051 53.8875 118.051 53.8875L116.57 43.8217C116.57 43.8217 107.48 49.5702 100.888 50.5396L102.368 60.6054Z" fill="#ECF0F1"/>
<path d="M102.368 60.6054C95.7769 61.5747 85.4163 58.6866 85.4163 58.6866L86.9521 69.1303C86.9521 69.1303 97.3127 72.0184 103.904 71.0491L102.368 60.6054Z" fill="#ECF0F1"/>
<path d="M71.5357 77.6552C78.1273 76.6859 88.4879 79.574 88.4879 79.574L86.9521 69.1303C86.9521 69.1303 76.5915 66.2422 69.9999 67.2115L71.5357 77.6552Z" fill="#ECF0F1"/>
<path d="M68.4641 56.7678C61.8725 57.7372 52.782 63.4857 52.782 63.4857L54.3178 73.9293C54.3178 73.9293 63.4083 68.1809 69.9999 67.2115L68.4641 56.7678Z" fill="#ECF0F1"/>
<path d="M105.44 81.4928C112.032 80.5234 121.122 74.7749 121.122 74.7749L119.605 64.4572L119.586 64.3312C119.586 64.3312 110.496 70.0797 103.904 71.0491L105.44 81.4928Z" fill="#ECF0F1"/>
<path d="M52.782 63.4857C52.782 63.4857 61.8725 57.7372 68.4641 56.7678L66.9839 46.702C60.3922 47.6714 51.3017 53.4198 51.3017 53.4198L52.782 63.4857Z" fill="#E38278"/>
<path d="M85.4163 58.6866C85.4163 58.6866 75.0557 55.7985 68.4641 56.7678L69.9999 67.2115C76.5915 66.2422 86.9521 69.1303 86.9521 69.1303L85.4163 58.6866Z" fill="#E38278"/>
<path d="M55.8536 84.373C55.8536 84.373 64.9441 78.6246 71.5357 77.6552L69.9999 67.2115C63.4083 68.1809 54.3178 73.9293 54.3178 73.9293L55.8536 84.373Z" fill="#E38278"/>
<path d="M88.4879 79.574C88.4879 79.574 98.8485 82.4621 105.44 81.4928L103.904 71.0491C97.3127 72.0184 86.9521 69.1303 86.9521 69.1303L88.4879 79.574Z" fill="#E38278"/>
<path d="M118.051 53.8875C118.051 53.8875 108.96 59.636 102.368 60.6054L103.904 71.0491C110.496 70.0797 119.586 64.3312 119.586 64.3312L118.088 54.1395L118.051 53.8875Z" fill="#E38278"/>
<path d="M85.4163 58.6866C85.4163 58.6866 95.7769 61.5747 102.368 60.6054L100.888 50.5396C94.2966 51.5089 83.9361 48.6208 83.9361 48.6208L85.4163 58.6866Z" fill="#E38278"/>
<path d="M115.053 33.504C115.053 33.504 105.963 39.2525 99.371 40.2218L100.888 50.5396C107.48 49.5702 116.57 43.8217 116.57 43.8217L115.053 33.504Z" fill="#E38278"/>
<path d="M82.4188 38.3031C82.4188 38.3031 72.0582 35.4149 65.4666 36.3843L66.9839 46.702C73.5755 45.7327 83.9361 48.6208 83.9361 48.6208L82.4188 38.3031Z" fill="#E38278"/>
<path d="M44.6593 43.8591L49.827 43.0992L61.971 125.68L56.8032 126.44L44.6593 43.8591Z" fill="#2C3E50"/>
<path d="M44.6593 43.8591L49.827 43.0992C49.6172 41.6722 48.2902 40.6854 46.8632 40.8953C45.4361 41.1051 44.4494 42.4321 44.6593 43.8591Z" fill="#2C3E50"/>
<path d="M80.5 143C67.7133 143 55.8379 139.098 46 132.419C46 132.419 51.8432 128.063 56 126C60.8123 123.612 64.0713 123.638 69 121.5C73.6472 119.484 75.5971 116.773 80.5 115.5C85.9808 114.077 89.3374 115.5 95 115.5C101.248 115.5 104.772 116.002 111 115.5C117.911 114.943 128.5 112.5 128.5 112.5L132.721 114C121.861 131.413 102.534 143 80.5 143Z" fill="#78C2A4"/>
<text fill="#666666" xml:space="preserve" style="white-space: pre" font-family="Open Sans" font-size="25" letter-spacing="0em"><tspan x="215" y="105.698">Je </tspan><tspan x="242.222" y="105.698">suis </tspan><tspan x="294.272" y="105.698">nais </tspan><tspan x="348.301" y="105.698">le </tspan><tspan x="375.156" y="105.698">17 </tspan><tspan x="410.264" y="105.698">avril </tspan><tspan x="466.05" y="105.698">2000 </tspan><tspan x="529.771" y="105.698">&#xe0; </tspan><tspan x="550.181" y="105.698">Boulogne </tspan><tspan x="667.881" y="105.698">sur </tspan><tspan x="711.875" y="105.698">Mer </tspan><tspan x="765.195" y="105.698">dans </tspan><tspan x="828.232" y="105.698">le </tspan><tspan x="855.088" y="105.698">Nord </tspan><tspan x="921.079" y="105.698">pas </tspan><tspan x="968.76" y="105.698">de </tspan><tspan x="1004.62" y="105.698">Calais</tspan></text>
<text fill="#2C3E50" xml:space="preserve" style="white-space: pre" font-family="Roboto" font-size="41" font-weight="500" letter-spacing="0em"><tspan x="205" y="69.0137">Naissance le 17 avril 2000</tspan></text>
<g filter="url(#filter7_d)">
<circle cx="81" cy="1337" r="75" fill="#DECE8E"/>
</g>
<g filter="url(#filter8_d)">
<circle cx="80.5" cy="1337.5" r="61.5" fill="white"/>
</g>
<path d="M65.4666 1292.38C58.875 1293.35 49.7844 1299.1 49.7844 1299.1L51.2832 1309.29L51.3017 1309.42C51.3017 1309.42 60.3922 1303.67 66.9839 1302.7L65.4666 1292.38Z" fill="#ECF0F1"/>
<path d="M68.4641 1312.77C75.0557 1311.8 85.4163 1314.69 85.4163 1314.69L83.9361 1304.62C83.9361 1304.62 73.5755 1301.73 66.9839 1302.7L68.4641 1312.77Z" fill="#ECF0F1"/>
<path d="M99.371 1296.22C92.7793 1297.19 82.4188 1294.3 82.4188 1294.3L83.9361 1304.62C83.9361 1304.62 94.2966 1307.51 100.888 1306.54L99.371 1296.22Z" fill="#ECF0F1"/>
<path d="M102.368 1316.61C108.96 1315.64 118.051 1309.89 118.051 1309.89L116.57 1299.82C116.57 1299.82 107.48 1305.57 100.888 1306.54L102.368 1316.61Z" fill="#ECF0F1"/>
<path d="M102.368 1316.61C95.7769 1317.57 85.4163 1314.69 85.4163 1314.69L86.9521 1325.13C86.9521 1325.13 97.3127 1328.02 103.904 1327.05L102.368 1316.61Z" fill="#ECF0F1"/>
<path d="M71.5357 1333.66C78.1273 1332.69 88.4879 1335.57 88.4879 1335.57L86.9521 1325.13C86.9521 1325.13 76.5915 1322.24 69.9999 1323.21L71.5357 1333.66Z" fill="#ECF0F1"/>
<path d="M68.4641 1312.77C61.8725 1313.74 52.782 1319.49 52.782 1319.49L54.3178 1329.93C54.3178 1329.93 63.4083 1324.18 69.9999 1323.21L68.4641 1312.77Z" fill="#ECF0F1"/>
<path d="M105.44 1337.49C112.032 1336.52 121.122 1330.78 121.122 1330.78L119.605 1320.46L119.586 1320.33C119.586 1320.33 110.496 1326.08 103.904 1327.05L105.44 1337.49Z" fill="#ECF0F1"/>
<path d="M52.782 1319.49C52.782 1319.49 61.8725 1313.74 68.4641 1312.77L66.9839 1302.7C60.3922 1303.67 51.3017 1309.42 51.3017 1309.42L52.782 1319.49Z" fill="#E38278"/>
<path d="M85.4163 1314.69C85.4163 1314.69 75.0557 1311.8 68.4641 1312.77L69.9999 1323.21C76.5915 1322.24 86.9521 1325.13 86.9521 1325.13L85.4163 1314.69Z" fill="#E38278"/>
<path d="M55.8536 1340.37C55.8536 1340.37 64.9441 1334.62 71.5357 1333.66L69.9999 1323.21C63.4083 1324.18 54.3178 1329.93 54.3178 1329.93L55.8536 1340.37Z" fill="#E38278"/>
<path d="M88.4879 1335.57C88.4879 1335.57 98.8485 1338.46 105.44 1337.49L103.904 1327.05C97.3127 1328.02 86.9521 1325.13 86.9521 1325.13L88.4879 1335.57Z" fill="#E38278"/>
<path d="M118.051 1309.89C118.051 1309.89 108.96 1315.64 102.368 1316.61L103.904 1327.05C110.496 1326.08 119.586 1320.33 119.586 1320.33L118.088 1310.14L118.051 1309.89Z" fill="#E38278"/>
<path d="M85.4163 1314.69C85.4163 1314.69 95.7769 1317.57 102.368 1316.61L100.888 1306.54C94.2966 1307.51 83.9361 1304.62 83.9361 1304.62L85.4163 1314.69Z" fill="#E38278"/>
<path d="M115.053 1289.5C115.053 1289.5 105.963 1295.25 99.371 1296.22L100.888 1306.54C107.48 1305.57 116.57 1299.82 116.57 1299.82L115.053 1289.5Z" fill="#E38278"/>
<path d="M82.4188 1294.3C82.4188 1294.3 72.0582 1291.42 65.4666 1292.38L66.9839 1302.7C73.5755 1301.73 83.9361 1304.62 83.9361 1304.62L82.4188 1294.3Z" fill="#E38278"/>
<path d="M44.6593 1299.86L49.827 1299.1L61.971 1381.68L56.8032 1382.44L44.6593 1299.86Z" fill="#2C3E50"/>
<path d="M44.6593 1299.86L49.827 1299.1C49.6172 1297.67 48.2902 1296.69 46.8632 1296.9C45.4361 1297.11 44.4494 1298.43 44.6593 1299.86Z" fill="#2C3E50"/>
<path d="M80.5 1399C67.7133 1399 55.8379 1395.1 46 1388.42C46 1388.42 51.8432 1384.06 56 1382C60.8123 1379.61 64.0713 1379.64 69 1377.5C73.6472 1375.48 75.5971 1372.77 80.5 1371.5C85.9808 1370.08 89.3374 1371.5 95 1371.5C101.248 1371.5 104.772 1372 111 1371.5C117.911 1370.94 128.5 1368.5 128.5 1368.5L132.721 1370C121.861 1387.41 102.534 1399 80.5 1399Z" fill="#78C2A4"/>
<text fill="#666666" xml:space="preserve" style="white-space: pre" font-family="Open Sans" font-size="25" letter-spacing="0em"><tspan x="215" y="1361.7">Je </tspan><tspan x="255.255" y="1361.7">travaille </tspan><tspan x="367.19" y="1361.7">actuellemnt </tspan><tspan x="524.926" y="1361.7">dans </tspan><tspan x="600.996" y="1361.7">la </tspan><tspan x="640.763" y="1361.7">Socit&#xe9;t&#xe9; </tspan><tspan x="753.113" y="1361.7">Intersyst&#xe8;me </tspan><tspan x="924.716" y="1361.7">en </tspan><tspan x="973.638" y="1361.7">tant </tspan><tspan x="1040.11" y="1361.7">que </tspan><tspan x="1104.37" y="1361.7">d&#xe9;veloppeur </tspan><tspan x="205" y="1395.7">informatique, </tspan><tspan x="370.161" y="1395.7">dans </tspan><tspan x="433.198" y="1395.7">le </tspan><tspan x="460.054" y="1395.7">domaine </tspan><tspan x="569.893" y="1395.7">du </tspan><tspan x="607.075" y="1395.7">site </tspan><tspan x="654.707" y="1395.7">Web.</tspan></text>
<text fill="#2C3E50" xml:space="preserve" style="white-space: pre" font-family="Roboto" font-size="41" font-weight="500" letter-spacing="0em"><tspan x="205" y="1325.01">CDD Etudiant -  Intersyst&#xe8;me</tspan></text>
<g filter="url(#filter9_d)">
<circle cx="81" cy="1119" r="75" fill="#F59086"/>
</g>
<g filter="url(#filter10_d)">
<circle cx="80.5" cy="1119.5" r="61.5" fill="white"/>
</g>
<path d="M65.4666 1074.38C58.875 1075.35 49.7844 1081.1 49.7844 1081.1L51.2832 1091.29L51.3017 1091.42C51.3017 1091.42 60.3922 1085.67 66.9839 1084.7L65.4666 1074.38Z" fill="#ECF0F1"/>
<path d="M68.4641 1094.77C75.0557 1093.8 85.4163 1096.69 85.4163 1096.69L83.9361 1086.62C83.9361 1086.62 73.5755 1083.73 66.9839 1084.7L68.4641 1094.77Z" fill="#ECF0F1"/>
<path d="M99.371 1078.22C92.7793 1079.19 82.4188 1076.3 82.4188 1076.3L83.9361 1086.62C83.9361 1086.62 94.2966 1089.51 100.888 1088.54L99.371 1078.22Z" fill="#ECF0F1"/>
<path d="M102.368 1098.61C108.96 1097.64 118.051 1091.89 118.051 1091.89L116.57 1081.82C116.57 1081.82 107.48 1087.57 100.888 1088.54L102.368 1098.61Z" fill="#ECF0F1"/>
<path d="M102.368 1098.61C95.7769 1099.57 85.4163 1096.69 85.4163 1096.69L86.9521 1107.13C86.9521 1107.13 97.3127 1110.02 103.904 1109.05L102.368 1098.61Z" fill="#ECF0F1"/>
<path d="M71.5357 1115.66C78.1273 1114.69 88.4879 1117.57 88.4879 1117.57L86.9521 1107.13C86.9521 1107.13 76.5915 1104.24 69.9999 1105.21L71.5357 1115.66Z" fill="#ECF0F1"/>
<path d="M68.4641 1094.77C61.8725 1095.74 52.782 1101.49 52.782 1101.49L54.3178 1111.93C54.3178 1111.93 63.4083 1106.18 69.9999 1105.21L68.4641 1094.77Z" fill="#ECF0F1"/>
<path d="M105.44 1119.49C112.032 1118.52 121.122 1112.78 121.122 1112.78L119.605 1102.46L119.586 1102.33C119.586 1102.33 110.496 1108.08 103.904 1109.05L105.44 1119.49Z" fill="#ECF0F1"/>
<path d="M52.782 1101.49C52.782 1101.49 61.8725 1095.74 68.4641 1094.77L66.9839 1084.7C60.3922 1085.67 51.3017 1091.42 51.3017 1091.42L52.782 1101.49Z" fill="#E38278"/>
<path d="M85.4163 1096.69C85.4163 1096.69 75.0557 1093.8 68.4641 1094.77L69.9999 1105.21C76.5915 1104.24 86.9521 1107.13 86.9521 1107.13L85.4163 1096.69Z" fill="#E38278"/>
<path d="M55.8536 1122.37C55.8536 1122.37 64.9441 1116.62 71.5357 1115.66L69.9999 1105.21C63.4083 1106.18 54.3178 1111.93 54.3178 1111.93L55.8536 1122.37Z" fill="#E38278"/>
<path d="M88.4879 1117.57C88.4879 1117.57 98.8485 1120.46 105.44 1119.49L103.904 1109.05C97.3127 1110.02 86.9521 1107.13 86.9521 1107.13L88.4879 1117.57Z" fill="#E38278"/>
<path d="M118.051 1091.89C118.051 1091.89 108.96 1097.64 102.368 1098.61L103.904 1109.05C110.496 1108.08 119.586 1102.33 119.586 1102.33L118.088 1092.14L118.051 1091.89Z" fill="#E38278"/>
<path d="M85.4163 1096.69C85.4163 1096.69 95.7769 1099.57 102.368 1098.61L100.888 1088.54C94.2966 1089.51 83.9361 1086.62 83.9361 1086.62L85.4163 1096.69Z" fill="#E38278"/>
<path d="M115.053 1071.5C115.053 1071.5 105.963 1077.25 99.371 1078.22L100.888 1088.54C107.48 1087.57 116.57 1081.82 116.57 1081.82L115.053 1071.5Z" fill="#E38278"/>
<path d="M82.4188 1076.3C82.4188 1076.3 72.0582 1073.42 65.4666 1074.38L66.9839 1084.7C73.5755 1083.73 83.9361 1086.62 83.9361 1086.62L82.4188 1076.3Z" fill="#E38278"/>
<path d="M44.6593 1081.86L49.827 1081.1L61.971 1163.68L56.8032 1164.44L44.6593 1081.86Z" fill="#2C3E50"/>
<path d="M44.6593 1081.86L49.827 1081.1C49.6172 1079.67 48.2902 1078.69 46.8632 1078.9C45.4361 1079.11 44.4494 1080.43 44.6593 1081.86Z" fill="#2C3E50"/>
<path d="M80.5 1181C67.7133 1181 55.8379 1177.1 46 1170.42C46 1170.42 51.8432 1166.06 56 1164C60.8123 1161.61 64.0713 1161.64 69 1159.5C73.6472 1157.48 75.5971 1154.77 80.5 1153.5C85.9808 1152.08 89.3374 1153.5 95 1153.5C101.248 1153.5 104.772 1154 111 1153.5C117.911 1152.94 128.5 1150.5 128.5 1150.5L132.721 1152C121.861 1169.41 102.534 1181 80.5 1181Z" fill="#78C2A4"/>
<text fill="#666666" xml:space="preserve" style="white-space: pre" font-family="Open Sans" font-size="25" letter-spacing="0em"><tspan x="215" y="1132.7">J&#x2019;ai </tspan><tspan x="253.935" y="1132.7">commenc&#xe9; </tspan><tspan x="390.6" y="1132.7">en </tspan><tspan x="427.753" y="1132.7">Septembre </tspan><tspan x="564.321" y="1132.7">une </tspan><tspan x="616.83" y="1132.7">licence </tspan><tspan x="704.496" y="1132.7">en </tspan><tspan x="741.649" y="1132.7">Informatique </tspan><tspan x="902.606" y="1132.7">&#xe0; </tspan><tspan x="924.281" y="1132.7">l&#x2019;universist&#xe9; </tspan><tspan x="1069.49" y="1132.7">du </tspan><tspan x="1107.94" y="1132.7">Littoral </tspan><tspan x="1198.24" y="1132.7">Cote </tspan><tspan x="205" y="1166.7">d&#x2019;Opale </tspan><tspan x="301.382" y="1166.7">(sur </tspan><tspan x="353.99" y="1166.7">le </tspan><tspan x="382.061" y="1166.7">site </tspan><tspan x="430.909" y="1166.7">de </tspan><tspan x="467.989" y="1166.7">Calais). </tspan><tspan x="557.95" y="1166.7">J&#x2019;ai </tspan><tspan x="596.837" y="1166.7">pour </tspan><tspan x="660.553" y="1166.7">l&#x2019;instant </tspan><tspan x="759.401" y="1166.7">obtenu </tspan><tspan x="851.145" y="1166.7">la </tspan><tspan x="879.094" y="1166.7">premi&#xe8;re </tspan><tspan x="994.25" y="1166.7">et </tspan><tspan x="1024.84" y="1166.7">seconde </tspan><tspan x="1130.28" y="1166.7">ann&#xe9;es </tspan><tspan x="1222.63" y="1166.7">de </tspan><tspan x="205" y="1200.7">licence.</tspan></text>
<text fill="#2C3E50" xml:space="preserve" style="white-space: pre" font-family="Roboto" font-size="41" font-weight="500" letter-spacing="0em"><tspan x="205" y="1096.01">Licence Informatique</tspan></text>
<g filter="url(#filter11_d)">
<circle cx="280" cy="483" r="75" fill="#DECE8E"/>
</g>
<g filter="url(#filter12_d)">
<circle cx="279.5" cy="483.5" r="61.5" fill="white"/>
</g>
<path d="M264.467 438.384C257.875 439.354 248.784 445.102 248.784 445.102L250.283 455.294L250.302 455.42C250.302 455.42 259.392 449.671 265.984 448.702L264.467 438.384Z" fill="#ECF0F1"/>
<path d="M267.464 458.768C274.056 457.799 284.416 460.687 284.416 460.687L282.936 450.621C282.936 450.621 272.575 447.733 265.984 448.702L267.464 458.768Z" fill="#ECF0F1"/>
<path d="M298.371 442.222C291.779 443.191 281.419 440.303 281.419 440.303L282.936 450.621C282.936 450.621 293.297 453.509 299.888 452.54L298.371 442.222Z" fill="#ECF0F1"/>
<path d="M301.368 462.605C307.96 461.636 317.051 455.888 317.051 455.888L315.57 445.822C315.57 445.822 306.48 451.57 299.888 452.54L301.368 462.605Z" fill="#ECF0F1"/>
<path d="M301.368 462.605C294.777 463.575 284.416 460.687 284.416 460.687L285.952 471.13C285.952 471.13 296.313 474.019 302.904 473.049L301.368 462.605Z" fill="#ECF0F1"/>
<path d="M270.536 479.655C277.127 478.686 287.488 481.574 287.488 481.574L285.952 471.13C285.952 471.13 275.592 468.242 269 469.212L270.536 479.655Z" fill="#ECF0F1"/>
<path d="M267.464 458.768C260.872 459.737 251.782 465.486 251.782 465.486L253.318 475.929C253.318 475.929 262.408 470.181 269 469.212L267.464 458.768Z" fill="#ECF0F1"/>
<path d="M304.44 483.493C311.032 482.524 320.122 476.775 320.122 476.775L318.605 466.457L318.586 466.331C318.586 466.331 309.496 472.08 302.904 473.049L304.44 483.493Z" fill="#ECF0F1"/>
<path d="M251.782 465.486C251.782 465.486 260.872 459.737 267.464 458.768L265.984 448.702C259.392 449.671 250.302 455.42 250.302 455.42L251.782 465.486Z" fill="#E38278"/>
<path d="M284.416 460.687C284.416 460.687 274.056 457.799 267.464 458.768L269 469.212C275.592 468.242 285.952 471.13 285.952 471.13L284.416 460.687Z" fill="#E38278"/>
<path d="M254.854 486.373C254.854 486.373 263.944 480.625 270.536 479.655L269 469.212C262.408 470.181 253.318 475.929 253.318 475.929L254.854 486.373Z" fill="#E38278"/>
<path d="M287.488 481.574C287.488 481.574 297.848 484.462 304.44 483.493L302.904 473.049C296.313 474.019 285.952 471.13 285.952 471.13L287.488 481.574Z" fill="#E38278"/>
<path d="M317.051 455.888C317.051 455.888 307.96 461.636 301.368 462.605L302.904 473.049C309.496 472.08 318.586 466.331 318.586 466.331L317.088 456.14L317.051 455.888Z" fill="#E38278"/>
<path d="M284.416 460.687C284.416 460.687 294.777 463.575 301.368 462.605L299.888 452.54C293.297 453.509 282.936 450.621 282.936 450.621L284.416 460.687Z" fill="#E38278"/>
<path d="M314.053 435.504C314.053 435.504 304.963 441.253 298.371 442.222L299.888 452.54C306.48 451.57 315.57 445.822 315.57 445.822L314.053 435.504Z" fill="#E38278"/>
<path d="M281.419 440.303C281.419 440.303 271.058 437.415 264.467 438.384L265.984 448.702C272.575 447.733 282.936 450.621 282.936 450.621L281.419 440.303Z" fill="#E38278"/>
<path d="M243.659 445.859L248.827 445.099L260.971 527.68L255.803 528.44L243.659 445.859Z" fill="#2C3E50"/>
<path d="M243.659 445.859L248.827 445.099C248.617 443.672 247.29 442.686 245.863 442.895C244.436 443.105 243.449 444.432 243.659 445.859Z" fill="#2C3E50"/>
<path d="M279.5 545C266.713 545 254.838 541.098 245 534.419C245 534.419 250.843 530.063 255 528C259.812 525.612 263.071 525.638 268 523.5C272.647 521.484 274.597 518.773 279.5 517.5C284.981 516.077 288.337 517.5 294 517.5C300.248 517.5 303.772 518.002 310 517.5C316.911 516.943 327.5 514.5 327.5 514.5L331.721 516C320.861 533.413 301.534 545 279.5 545Z" fill="#78C2A4"/>
<text fill="#666666" xml:space="preserve" style="white-space: pre" font-family="Open Sans" font-size="25" letter-spacing="0em"><tspan x="380" y="490.698">En </tspan><tspan x="416.747" y="490.698">parall&#xe9; </tspan><tspan x="504.276" y="490.698">le </tspan><tspan x="532.112" y="490.698">de </tspan><tspan x="568.957" y="490.698">mon </tspan><tspan x="630.167" y="490.698">ann&#xe9;e </tspan><tspan x="710.347" y="490.698">de </tspan><tspan x="747.191" y="490.698">terminal, </tspan><tspan x="859.061" y="490.698">j&#x2019;ai </tspan><tspan x="897.346" y="490.698">d&#xe9;velopp&#xe9; </tspan><tspan x="1026.89" y="490.698">un </tspan><tspan x="1065.08" y="490.698">site </tspan><tspan x="1113.69" y="490.698">web </tspan><tspan x="1169.99" y="490.698">pour </tspan><tspan x="370" y="524.698">aider </tspan><tspan x="438.659" y="524.698">&#xe0; </tspan><tspan x="461.419" y="524.698">r&#xe9;viser. </tspan><tspan x="556.201" y="524.698">Il </tspan><tspan x="578.351" y="524.698">a </tspan><tspan x="601.112" y="524.698">&#xe9;t&#xe9; </tspan><tspan x="646.87" y="524.698">&#xe0; </tspan><tspan x="669.631" y="524.698">ma </tspan><tspan x="715.658" y="524.698">destination </tspan><tspan x="855.874" y="524.698">mais </tspan><tspan x="920.163" y="524.698">&#xe9;galement </tspan><tspan x="1052.52" y="524.698">&#xe0; </tspan><tspan x="1075.28" y="524.698">ceux </tspan><tspan x="1138.54" y="524.698">de </tspan><tspan x="1176.76" y="524.698">mes </tspan><tspan x="370" y="558.698">camarades.</tspan></text>
<text fill="#2C3E50" xml:space="preserve" style="white-space: pre" font-family="Roboto" font-size="41" font-weight="500" letter-spacing="0em"><tspan x="370" y="454.014">Gotobac</tspan></text>
<g filter="url(#filter13_d)">
<circle cx="280" cy="692" r="75" fill="#DECE8E"/>
</g>
<g filter="url(#filter14_d)">
<circle cx="279.5" cy="692.5" r="61.5" fill="white"/>
</g>
<path d="M264.467 647.384C257.875 648.354 248.784 654.102 248.784 654.102L250.283 664.294L250.302 664.42C250.302 664.42 259.392 658.671 265.984 657.702L264.467 647.384Z" fill="#ECF0F1"/>
<path d="M267.464 667.768C274.056 666.799 284.416 669.687 284.416 669.687L282.936 659.621C282.936 659.621 272.575 656.733 265.984 657.702L267.464 667.768Z" fill="#ECF0F1"/>
<path d="M298.371 651.222C291.779 652.191 281.419 649.303 281.419 649.303L282.936 659.621C282.936 659.621 293.297 662.509 299.888 661.54L298.371 651.222Z" fill="#ECF0F1"/>
<path d="M301.368 671.605C307.96 670.636 317.051 664.888 317.051 664.888L315.57 654.822C315.57 654.822 306.48 660.57 299.888 661.54L301.368 671.605Z" fill="#ECF0F1"/>
<path d="M301.368 671.605C294.777 672.575 284.416 669.687 284.416 669.687L285.952 680.13C285.952 680.13 296.313 683.019 302.904 682.049L301.368 671.605Z" fill="#ECF0F1"/>
<path d="M270.536 688.655C277.127 687.686 287.488 690.574 287.488 690.574L285.952 680.13C285.952 680.13 275.592 677.242 269 678.212L270.536 688.655Z" fill="#ECF0F1"/>
<path d="M267.464 667.768C260.872 668.737 251.782 674.486 251.782 674.486L253.318 684.929C253.318 684.929 262.408 679.181 269 678.212L267.464 667.768Z" fill="#ECF0F1"/>
<path d="M304.44 692.493C311.032 691.524 320.122 685.775 320.122 685.775L318.605 675.457L318.586 675.331C318.586 675.331 309.496 681.08 302.904 682.049L304.44 692.493Z" fill="#ECF0F1"/>
<path d="M251.782 674.486C251.782 674.486 260.872 668.737 267.464 667.768L265.984 657.702C259.392 658.671 250.302 664.42 250.302 664.42L251.782 674.486Z" fill="#E38278"/>
<path d="M284.416 669.687C284.416 669.687 274.056 666.799 267.464 667.768L269 678.212C275.592 677.242 285.952 680.13 285.952 680.13L284.416 669.687Z" fill="#E38278"/>
<path d="M254.854 695.373C254.854 695.373 263.944 689.625 270.536 688.655L269 678.212C262.408 679.181 253.318 684.929 253.318 684.929L254.854 695.373Z" fill="#E38278"/>
<path d="M287.488 690.574C287.488 690.574 297.848 693.462 304.44 692.493L302.904 682.049C296.313 683.019 285.952 680.13 285.952 680.13L287.488 690.574Z" fill="#E38278"/>
<path d="M317.051 664.888C317.051 664.888 307.96 670.636 301.368 671.605L302.904 682.049C309.496 681.08 318.586 675.331 318.586 675.331L317.088 665.14L317.051 664.888Z" fill="#E38278"/>
<path d="M284.416 669.687C284.416 669.687 294.777 672.575 301.368 671.605L299.888 661.54C293.297 662.509 282.936 659.621 282.936 659.621L284.416 669.687Z" fill="#E38278"/>
<path d="M314.053 644.504C314.053 644.504 304.963 650.253 298.371 651.222L299.888 661.54C306.48 660.57 315.57 654.822 315.57 654.822L314.053 644.504Z" fill="#E38278"/>
<path d="M281.419 649.303C281.419 649.303 271.058 646.415 264.467 647.384L265.984 657.702C272.575 656.733 282.936 659.621 282.936 659.621L281.419 649.303Z" fill="#E38278"/>
<path d="M243.659 654.859L248.827 654.099L260.971 736.68L255.803 737.44L243.659 654.859Z" fill="#2C3E50"/>
<path d="M243.659 654.859L248.827 654.099C248.617 652.672 247.29 651.686 245.863 651.895C244.436 652.105 243.449 653.432 243.659 654.859Z" fill="#2C3E50"/>
<path d="M279.5 754C266.713 754 254.838 750.098 245 743.419C245 743.419 250.843 739.063 255 737C259.812 734.612 263.071 734.638 268 732.5C272.647 730.484 274.597 727.773 279.5 726.5C284.981 725.077 288.337 726.5 294 726.5C300.248 726.5 303.772 727.002 310 726.5C316.911 725.943 327.5 723.5 327.5 723.5L331.721 725C320.861 742.413 301.534 754 279.5 754Z" fill="#78C2A4"/>
<text fill="#666666" xml:space="preserve" style="white-space: pre" font-family="Open Sans" font-size="25" letter-spacing="0em"><tspan x="380" y="708.698">Durant </tspan><tspan x="469.834" y="708.698">trois </tspan><tspan x="530.176" y="708.698">mois </tspan><tspan x="594.741" y="708.698">(juilliet, </tspan><tspan x="686.04" y="708.698">aout </tspan><tspan x="747.187" y="708.698">et </tspan><tspan x="777.988" y="708.698">septembre </tspan><tspan x="912.939" y="708.698">2018) </tspan><tspan x="985.488" y="708.698">j&#x2019;ai </tspan><tspan x="1024.22" y="708.698">r&#xe9;alis&#xe9; </tspan><tspan x="1108.93" y="708.698">un </tspan><tspan x="1147.57" y="708.698">site </tspan><tspan x="1196.63" y="708.698">de </tspan><tspan x="370" y="742.698">vente </tspan><tspan x="445.79" y="742.698">pour </tspan><tspan x="512.792" y="742.698">des </tspan><tspan x="565.096" y="742.698">yaourts, </tspan><tspan x="670.183" y="742.698">produit </tspan><tspan x="767.678" y="742.698">par </tspan><tspan x="818.126" y="742.698">une </tspan><tspan x="873.873" y="742.698">coop&#xe9;rative </tspan><tspan x="1022.22" y="742.698">de </tspan><tspan x="1062.59" y="742.698">d&#x2019;agriculteur </tspan><tspan x="1219.33" y="742.698">: </tspan><tspan x="370" y="776.698">LaitPrairiesDuBoulonnais</tspan></text>
<text fill="#2C3E50" xml:space="preserve" style="white-space: pre" font-family="Roboto" font-size="41" font-weight="500" letter-spacing="0em"><tspan x="370" y="672.014">Lait Pairies du Boulonnais</tspan></text>
<g filter="url(#filter15_d)">
<circle cx="293" cy="910" r="75" fill="#DECE8E"/>
</g>
<g filter="url(#filter16_d)">
<circle cx="292.5" cy="910.5" r="61.5" fill="white"/>
</g>
<path d="M277.467 865.384C270.875 866.354 261.784 872.102 261.784 872.102L263.283 882.294L263.302 882.42C263.302 882.42 272.392 876.671 278.984 875.702L277.467 865.384Z" fill="#ECF0F1"/>
<path d="M280.464 885.768C287.056 884.799 297.416 887.687 297.416 887.687L295.936 877.621C295.936 877.621 285.575 874.733 278.984 875.702L280.464 885.768Z" fill="#ECF0F1"/>
<path d="M311.371 869.222C304.779 870.191 294.419 867.303 294.419 867.303L295.936 877.621C295.936 877.621 306.297 880.509 312.888 879.54L311.371 869.222Z" fill="#ECF0F1"/>
<path d="M314.368 889.605C320.96 888.636 330.051 882.888 330.051 882.888L328.57 872.822C328.57 872.822 319.48 878.57 312.888 879.54L314.368 889.605Z" fill="#ECF0F1"/>
<path d="M314.368 889.605C307.777 890.575 297.416 887.687 297.416 887.687L298.952 898.13C298.952 898.13 309.313 901.019 315.904 900.049L314.368 889.605Z" fill="#ECF0F1"/>
<path d="M283.536 906.655C290.127 905.686 300.488 908.574 300.488 908.574L298.952 898.13C298.952 898.13 288.592 895.242 282 896.212L283.536 906.655Z" fill="#ECF0F1"/>
<path d="M280.464 885.768C273.872 886.737 264.782 892.486 264.782 892.486L266.318 902.929C266.318 902.929 275.408 897.181 282 896.212L280.464 885.768Z" fill="#ECF0F1"/>
<path d="M317.44 910.493C324.032 909.524 333.122 903.775 333.122 903.775L331.605 893.457L331.586 893.331C331.586 893.331 322.496 899.08 315.904 900.049L317.44 910.493Z" fill="#ECF0F1"/>
<path d="M264.782 892.486C264.782 892.486 273.872 886.737 280.464 885.768L278.984 875.702C272.392 876.671 263.302 882.42 263.302 882.42L264.782 892.486Z" fill="#E38278"/>
<path d="M297.416 887.687C297.416 887.687 287.056 884.799 280.464 885.768L282 896.212C288.592 895.242 298.952 898.13 298.952 898.13L297.416 887.687Z" fill="#E38278"/>
<path d="M267.854 913.373C267.854 913.373 276.944 907.625 283.536 906.655L282 896.212C275.408 897.181 266.318 902.929 266.318 902.929L267.854 913.373Z" fill="#E38278"/>
<path d="M300.488 908.574C300.488 908.574 310.848 911.462 317.44 910.493L315.904 900.049C309.313 901.019 298.952 898.13 298.952 898.13L300.488 908.574Z" fill="#E38278"/>
<path d="M330.051 882.888C330.051 882.888 320.96 888.636 314.368 889.605L315.904 900.049C322.496 899.08 331.586 893.331 331.586 893.331L330.088 883.14L330.051 882.888Z" fill="#E38278"/>
<path d="M297.416 887.687C297.416 887.687 307.777 890.575 314.368 889.605L312.888 879.54C306.297 880.509 295.936 877.621 295.936 877.621L297.416 887.687Z" fill="#E38278"/>
<path d="M327.053 862.504C327.053 862.504 317.963 868.253 311.371 869.222L312.888 879.54C319.48 878.57 328.57 872.822 328.57 872.822L327.053 862.504Z" fill="#E38278"/>
<path d="M294.419 867.303C294.419 867.303 284.058 864.415 277.467 865.384L278.984 875.702C285.575 874.733 295.936 877.621 295.936 877.621L294.419 867.303Z" fill="#E38278"/>
<path d="M256.659 872.859L261.827 872.099L273.971 954.68L268.803 955.44L256.659 872.859Z" fill="#2C3E50"/>
<path d="M256.659 872.859L261.827 872.099C261.617 870.672 260.29 869.686 258.863 869.895C257.436 870.105 256.449 871.432 256.659 872.859Z" fill="#2C3E50"/>
<path d="M292.5 972C279.713 972 267.838 968.098 258 961.419C258 961.419 263.843 957.063 268 955C272.812 952.612 276.071 952.638 281 950.5C285.647 948.484 287.597 945.773 292.5 944.5C297.981 943.077 301.337 944.5 307 944.5C313.248 944.5 316.772 945.002 323 944.5C329.911 943.943 340.5 941.5 340.5 941.5L344.721 943C333.861 960.413 314.534 972 292.5 972Z" fill="#78C2A4"/>
<text fill="#666666" xml:space="preserve" style="white-space: pre" font-family="Open Sans" font-size="25" letter-spacing="0em"><tspan x="393" y="917.698">C&#x2019;est </tspan><tspan x="461.819" y="917.698">&#xe9;galement </tspan><tspan x="599.315" y="917.698">durant </tspan><tspan x="692.304" y="917.698">juin </tspan><tspan x="749.649" y="917.698">2018 </tspan><tspan x="820.86" y="917.698">que </tspan><tspan x="879.572" y="917.698">j&#x2019;ai </tspan><tspan x="924.368" y="917.698">&#xe9;t&#xe9; </tspan><tspan x="975.267" y="917.698">employ&#xe9; </tspan><tspan x="1089.96" y="917.698">en </tspan><tspan x="1133.34" y="917.698">tant </tspan><tspan x="1194.27" y="917.698">que </tspan><tspan x="383" y="951.698">d&#xe9;veloppeur </tspan><tspan x="556.799" y="951.698">informatique </tspan><tspan x="735.506" y="951.698">par </tspan><tspan x="801.127" y="951.698">la </tspan><tspan x="847.533" y="951.698">socit&#xe9; </tspan><tspan x="941.865" y="951.698">Intersyst&#xe8;me </tspan><tspan x="1120.11" y="951.698">bas&#xe9; </tspan><tspan x="1201.5" y="951.698">sur </tspan><tspan x="383" y="985.698">Pernes-lez-Boulogne. </tspan></text>
<text fill="#2C3E50" xml:space="preserve" style="white-space: pre" font-family="Roboto" font-size="41" font-weight="500" letter-spacing="0em"><tspan x="383" y="881.014">CDD - Intersysteme</tspan></text>
<g filter="url(#filter17_d)">
<circle cx="81" cy="282" r="75" fill="#F59086"/>
</g>
<g filter="url(#filter18_d)">
<circle cx="80.5" cy="282.5" r="61.5" fill="white"/>
</g>
<path d="M82.0716 280.963C67.8202 283.54 45.2964 285.746 45.2964 285.746L47.5137 298.007L49.731 310.269C49.731 310.269 71.6007 304.446 85.8521 301.869C100.104 299.292 122.627 297.086 122.627 297.086L120.41 284.825L118.193 272.564C118.193 272.564 96.323 278.386 82.0716 280.963Z" fill="#FFF5CB"/>
<ellipse cx="47.5025" cy="298.023" rx="3.96775" ry="12.4323" transform="rotate(-10.2505 47.5025 298.023)" fill="#F1C40F"/>
<ellipse cx="120.417" cy="284.781" rx="3.96775" ry="12.4323" transform="rotate(-10.2505 120.417 284.781)" fill="#FFF5CB"/>
<path d="M74.4648 282.203L82.0715 280.963L89.6305 279.46C89.6305 279.46 92.1065 285.642 92.8598 289.807C93.613 293.973 93.4587 300.63 93.4587 300.63L85.8521 301.869L78.2931 303.372C78.2931 303.372 78.6687 296.687 77.9134 292.51C77.158 288.333 74.4648 282.203 74.4648 282.203Z" fill="#C0392B"/>
<rect x="87.3706" y="302.152" width="4.45502" height="11.1376" rx="1.39219" transform="rotate(-30.2505 87.3706 302.152)" fill="#C0392B"/>
<rect x="82.9844" y="301.396" width="4.45502" height="11.1376" rx="1.39219" transform="rotate(9.74951 82.9844 301.396)" fill="#C0392B"/>
<circle cx="86.2581" cy="295.939" r="8.67337" transform="rotate(-10.2505 86.2581 295.939)" fill="#E74C3C"/>
<path d="M81.3096 245.235C80.9595 245.085 80.5633 245.085 80.2133 245.235L37.9875 263.322C36.8622 263.804 36.8622 265.4 37.9875 265.882L80.2133 283.969C80.5633 284.119 80.9595 284.119 81.3096 283.969L123.535 265.882C124.661 265.4 124.661 263.804 123.535 263.322L81.3096 245.235Z" fill="#2C3E50"/>
<path d="M62.3706 264.602V281.726H99.1245V264.602H62.3706Z" fill="#34495E"/>
<ellipse cx="80.7476" cy="281.74" rx="18.377" ry="5.52701" fill="#2C3E50"/>
<ellipse cx="80.7476" cy="265.507" rx="18.377" ry="5.52701" fill="#34495E"/>
<rect x="45.1353" y="259.089" width="1.36435" height="11.054" rx="0.556878" fill="#F1C40F"/>
<rect x="44.1606" y="268.834" width="3.28558" height="4.39933" rx="1.39219" fill="#EED673"/>
<text fill="#666666" xml:space="preserve" style="white-space: pre" font-family="Open Sans" font-size="25" letter-spacing="0em"><tspan x="215" y="298.698">J&#x2019;ai </tspan><tspan x="254.949" y="298.698">obtenu </tspan><tspan x="347.754" y="298.698">le </tspan><tspan x="376.887" y="298.698">bas </tspan><tspan x="426.846" y="298.698">en </tspan><tspan x="465.012" y="298.698">juin </tspan><tspan x="517.144" y="298.698">2018 </tspan><tspan x="583.142" y="298.698">le </tspan><tspan x="612.276" y="298.698">bac </tspan><tspan x="662.21" y="298.698">scienctifique </tspan><tspan x="817.149" y="298.698">option </tspan><tspan x="901.995" y="298.698">science </tspan><tspan x="996.289" y="298.698">de </tspan><tspan x="1034.43" y="298.698">l&#x2019;ing&#xe9;nieur, </tspan><tspan x="1170.6" y="298.698">avec </tspan><tspan x="1231.76" y="298.698">la </tspan><tspan x="205" y="332.698">mention </tspan><tspan x="309.785" y="332.698">Tr&#xe8;s </tspan><tspan x="366.304" y="332.698">Bien</tspan></text>
<text fill="#2C3E50" xml:space="preserve" style="white-space: pre" font-family="Roboto" font-size="41" font-weight="500" letter-spacing="0em"><tspan x="205" y="262.014">Obtention du Bac</tspan></text>
<g filter="url(#filter19_d)">
<rect x="70" y="794" width="15" height="15" fill="#5BBAF9"/>
</g>
<defs>
<filter id="filter0_d" x="72" y="78" width="13" height="266.077" filterUnits="userSpaceOnUse" color-interpolation-filters="sRGB">
<feFlood flood-opacity="0" result="BackgroundImageFix"/>
<feColorMatrix in="SourceAlpha" type="matrix" values="0 0 0 0 0 0 0 0 0 0 0 0 0 0 0 0 0 0 127 0"/>
<feOffset dy="4"/>
<feGaussianBlur stdDeviation="2"/>
<feColorMatrix type="matrix" values="0 0 0 0 0 0 0 0 0 0 0 0 0 0 0 0 0 0 0.25 0"/>
<feBlend mode="normal" in2="BackgroundImageFix" result="effect1_dropShadow"/>
<feBlend mode="normal" in="SourceGraphic" in2="effect1_dropShadow" result="shape"/>
</filter>
<filter id="filter1_d" x="71.5" y="312" width="13" height="816.001" filterUnits="userSpaceOnUse" color-interpolation-filters="sRGB">
<feFlood flood-opacity="0" result="BackgroundImageFix"/>
<feColorMatrix in="SourceAlpha" type="matrix" values="0 0 0 0 0 0 0 0 0 0 0 0 0 0 0 0 0 0 127 0"/>
<feOffset dy="4"/>
<feGaussianBlur stdDeviation="2"/>
<feColorMatrix type="matrix" values="0 0 0 0 0 0 0 0 0 0 0 0 0 0 0 0 0 0 0.25 0"/>
<feBlend mode="normal" in2="BackgroundImageFix" result="effect1_dropShadow"/>
<feBlend mode="normal" in="SourceGraphic" in2="effect1_dropShadow" result="shape"/>
</filter>
<filter id="filter2_d" x="69" y="1097" width="13" height="273" filterUnits="userSpaceOnUse" color-interpolation-filters="sRGB">
<feFlood flood-opacity="0" result="BackgroundImageFix"/>
<feColorMatrix in="SourceAlpha" type="matrix" values="0 0 0 0 0 0 0 0 0 0 0 0 0 0 0 0 0 0 127 0"/>
<feOffset dy="4"/>
<feGaussianBlur stdDeviation="2"/>
<feColorMatrix type="matrix" values="0 0 0 0 0 0 0 0 0 0 0 0 0 0 0 0 0 0 0.25 0"/>
<feBlend mode="normal" in2="BackgroundImageFix" result="effect1_dropShadow"/>
<feBlend mode="normal" in="SourceGraphic" in2="effect1_dropShadow" result="shape"/>
</filter>
<filter id="filter3_d" x="74" y="697.5" width="211" height="221.5" filterUnits="userSpaceOnUse" color-interpolation-filters="sRGB">
<feFlood flood-opacity="0" result="BackgroundImageFix"/>
<feColorMatrix in="SourceAlpha" type="matrix" values="0 0 0 0 0 0 0 0 0 0 0 0 0 0 0 0 0 0 127 0"/>
<feOffset dy="4"/>
<feGaussianBlur stdDeviation="2"/>
<feColorMatrix type="matrix" values="0 0 0 0 0 0 0 0 0 0 0 0 0 0 0 0 0 0 0.25 0"/>
<feBlend mode="normal" in2="BackgroundImageFix" result="effect1_dropShadow"/>
<feBlend mode="normal" in="SourceGraphic" in2="effect1_dropShadow" result="shape"/>
</filter>
<filter id="filter4_d" x="92.5" y="336" width="149.5" height="165.5" filterUnits="userSpaceOnUse" color-interpolation-filters="sRGB">
<feFlood flood-opacity="0" result="BackgroundImageFix"/>
<feColorMatrix in="SourceAlpha" type="matrix" values="0 0 0 0 0 0 0 0 0 0 0 0 0 0 0 0 0 0 127 0"/>
<feOffset dy="4"/>
<feGaussianBlur stdDeviation="2"/>
<feColorMatrix type="matrix" values="0 0 0 0 0 0 0 0 0 0 0 0 0 0 0 0 0 0 0.25 0"/>
<feBlend mode="normal" in2="BackgroundImageFix" result="effect1_dropShadow"/>
<feBlend mode="normal" in="SourceGraphic" in2="effect1_dropShadow" result="shape"/>
</filter>
<filter id="filter5_d" x="0" y="0" width="170" height="170" filterUnits="userSpaceOnUse" color-interpolation-filters="sRGB">
<feFlood flood-opacity="0" result="BackgroundImageFix"/>
<feColorMatrix in="SourceAlpha" type="matrix" values="0 0 0 0 0 0 0 0 0 0 0 0 0 0 0 0 0 0 127 0"/>
<feOffset dx="4" dy="4"/>
<feGaussianBlur stdDeviation="5"/>
<feColorMatrix type="matrix" values="0 0 0 0 0 0 0 0 0 0 0 0 0 0 0 0 0 0 0.25 0"/>
<feBlend mode="normal" in2="BackgroundImageFix" result="effect1_dropShadow"/>
<feBlend mode="normal" in="SourceGraphic" in2="effect1_dropShadow" result="shape"/>
</filter>
<filter id="filter6_d" x="15.3008" y="16.3008" width="130.398" height="130.398" filterUnits="userSpaceOnUse" color-interpolation-filters="sRGB">
<feFlood flood-opacity="0" result="BackgroundImageFix"/>
<feColorMatrix in="SourceAlpha" type="matrix" values="0 0 0 0 0 0 0 0 0 0 0 0 0 0 0 0 0 0 127 0"/>
<feOffset/>
<feGaussianBlur stdDeviation="1.84962"/>
<feColorMatrix type="matrix" values="0 0 0 0 0 0 0 0 0 0 0 0 0 0 0 0 0 0 0.25 0"/>
<feBlend mode="normal" in2="BackgroundImageFix" result="effect1_dropShadow"/>
<feBlend mode="normal" in="SourceGraphic" in2="effect1_dropShadow" result="shape"/>
</filter>
<filter id="filter7_d" x="0" y="1256" width="170" height="170" filterUnits="userSpaceOnUse" color-interpolation-filters="sRGB">
<feFlood flood-opacity="0" result="BackgroundImageFix"/>
<feColorMatrix in="SourceAlpha" type="matrix" values="0 0 0 0 0 0 0 0 0 0 0 0 0 0 0 0 0 0 127 0"/>
<feOffset dx="4" dy="4"/>
<feGaussianBlur stdDeviation="5"/>
<feColorMatrix type="matrix" values="0 0 0 0 0 0 0 0 0 0 0 0 0 0 0 0 0 0 0.25 0"/>
<feBlend mode="normal" in2="BackgroundImageFix" result="effect1_dropShadow"/>
<feBlend mode="normal" in="SourceGraphic" in2="effect1_dropShadow" result="shape"/>
</filter>
<filter id="filter8_d" x="15.3008" y="1272.3" width="130.398" height="130.398" filterUnits="userSpaceOnUse" color-interpolation-filters="sRGB">
<feFlood flood-opacity="0" result="BackgroundImageFix"/>
<feColorMatrix in="SourceAlpha" type="matrix" values="0 0 0 0 0 0 0 0 0 0 0 0 0 0 0 0 0 0 127 0"/>
<feOffset/>
<feGaussianBlur stdDeviation="1.84962"/>
<feColorMatrix type="matrix" values="0 0 0 0 0 0 0 0 0 0 0 0 0 0 0 0 0 0 0.25 0"/>
<feBlend mode="normal" in2="BackgroundImageFix" result="effect1_dropShadow"/>
<feBlend mode="normal" in="SourceGraphic" in2="effect1_dropShadow" result="shape"/>
</filter>
<filter id="filter9_d" x="0" y="1038" width="170" height="170" filterUnits="userSpaceOnUse" color-interpolation-filters="sRGB">
<feFlood flood-opacity="0" result="BackgroundImageFix"/>
<feColorMatrix in="SourceAlpha" type="matrix" values="0 0 0 0 0 0 0 0 0 0 0 0 0 0 0 0 0 0 127 0"/>
<feOffset dx="4" dy="4"/>
<feGaussianBlur stdDeviation="5"/>
<feColorMatrix type="matrix" values="0 0 0 0 0 0 0 0 0 0 0 0 0 0 0 0 0 0 0.25 0"/>
<feBlend mode="normal" in2="BackgroundImageFix" result="effect1_dropShadow"/>
<feBlend mode="normal" in="SourceGraphic" in2="effect1_dropShadow" result="shape"/>
</filter>
<filter id="filter10_d" x="15.3008" y="1054.3" width="130.398" height="130.398" filterUnits="userSpaceOnUse" color-interpolation-filters="sRGB">
<feFlood flood-opacity="0" result="BackgroundImageFix"/>
<feColorMatrix in="SourceAlpha" type="matrix" values="0 0 0 0 0 0 0 0 0 0 0 0 0 0 0 0 0 0 127 0"/>
<feOffset/>
<feGaussianBlur stdDeviation="1.84962"/>
<feColorMatrix type="matrix" values="0 0 0 0 0 0 0 0 0 0 0 0 0 0 0 0 0 0 0.25 0"/>
<feBlend mode="normal" in2="BackgroundImageFix" result="effect1_dropShadow"/>
<feBlend mode="normal" in="SourceGraphic" in2="effect1_dropShadow" result="shape"/>
</filter>
<filter id="filter11_d" x="199" y="402" width="170" height="170" filterUnits="userSpaceOnUse" color-interpolation-filters="sRGB">
<feFlood flood-opacity="0" result="BackgroundImageFix"/>
<feColorMatrix in="SourceAlpha" type="matrix" values="0 0 0 0 0 0 0 0 0 0 0 0 0 0 0 0 0 0 127 0"/>
<feOffset dx="4" dy="4"/>
<feGaussianBlur stdDeviation="5"/>
<feColorMatrix type="matrix" values="0 0 0 0 0 0 0 0 0 0 0 0 0 0 0 0 0 0 0.25 0"/>
<feBlend mode="normal" in2="BackgroundImageFix" result="effect1_dropShadow"/>
<feBlend mode="normal" in="SourceGraphic" in2="effect1_dropShadow" result="shape"/>
</filter>
<filter id="filter12_d" x="214.301" y="418.301" width="130.398" height="130.398" filterUnits="userSpaceOnUse" color-interpolation-filters="sRGB">
<feFlood flood-opacity="0" result="BackgroundImageFix"/>
<feColorMatrix in="SourceAlpha" type="matrix" values="0 0 0 0 0 0 0 0 0 0 0 0 0 0 0 0 0 0 127 0"/>
<feOffset/>
<feGaussianBlur stdDeviation="1.84962"/>
<feColorMatrix type="matrix" values="0 0 0 0 0 0 0 0 0 0 0 0 0 0 0 0 0 0 0.25 0"/>
<feBlend mode="normal" in2="BackgroundImageFix" result="effect1_dropShadow"/>
<feBlend mode="normal" in="SourceGraphic" in2="effect1_dropShadow" result="shape"/>
</filter>
<filter id="filter13_d" x="199" y="611" width="170" height="170" filterUnits="userSpaceOnUse" color-interpolation-filters="sRGB">
<feFlood flood-opacity="0" result="BackgroundImageFix"/>
<feColorMatrix in="SourceAlpha" type="matrix" values="0 0 0 0 0 0 0 0 0 0 0 0 0 0 0 0 0 0 127 0"/>
<feOffset dx="4" dy="4"/>
<feGaussianBlur stdDeviation="5"/>
<feColorMatrix type="matrix" values="0 0 0 0 0 0 0 0 0 0 0 0 0 0 0 0 0 0 0.25 0"/>
<feBlend mode="normal" in2="BackgroundImageFix" result="effect1_dropShadow"/>
<feBlend mode="normal" in="SourceGraphic" in2="effect1_dropShadow" result="shape"/>
</filter>
<filter id="filter14_d" x="214.301" y="627.301" width="130.398" height="130.398" filterUnits="userSpaceOnUse" color-interpolation-filters="sRGB">
<feFlood flood-opacity="0" result="BackgroundImageFix"/>
<feColorMatrix in="SourceAlpha" type="matrix" values="0 0 0 0 0 0 0 0 0 0 0 0 0 0 0 0 0 0 127 0"/>
<feOffset/>
<feGaussianBlur stdDeviation="1.84962"/>
<feColorMatrix type="matrix" values="0 0 0 0 0 0 0 0 0 0 0 0 0 0 0 0 0 0 0.25 0"/>
<feBlend mode="normal" in2="BackgroundImageFix" result="effect1_dropShadow"/>
<feBlend mode="normal" in="SourceGraphic" in2="effect1_dropShadow" result="shape"/>
</filter>
<filter id="filter15_d" x="212" y="829" width="170" height="170" filterUnits="userSpaceOnUse" color-interpolation-filters="sRGB">
<feFlood flood-opacity="0" result="BackgroundImageFix"/>
<feColorMatrix in="SourceAlpha" type="matrix" values="0 0 0 0 0 0 0 0 0 0 0 0 0 0 0 0 0 0 127 0"/>
<feOffset dx="4" dy="4"/>
<feGaussianBlur stdDeviation="5"/>
<feColorMatrix type="matrix" values="0 0 0 0 0 0 0 0 0 0 0 0 0 0 0 0 0 0 0.25 0"/>
<feBlend mode="normal" in2="BackgroundImageFix" result="effect1_dropShadow"/>
<feBlend mode="normal" in="SourceGraphic" in2="effect1_dropShadow" result="shape"/>
</filter>
<filter id="filter16_d" x="227.301" y="845.301" width="130.398" height="130.398" filterUnits="userSpaceOnUse" color-interpolation-filters="sRGB">
<feFlood flood-opacity="0" result="BackgroundImageFix"/>
<feColorMatrix in="SourceAlpha" type="matrix" values="0 0 0 0 0 0 0 0 0 0 0 0 0 0 0 0 0 0 127 0"/>
<feOffset/>
<feGaussianBlur stdDeviation="1.84962"/>
<feColorMatrix type="matrix" values="0 0 0 0 0 0 0 0 0 0 0 0 0 0 0 0 0 0 0.25 0"/>
<feBlend mode="normal" in2="BackgroundImageFix" result="effect1_dropShadow"/>
<feBlend mode="normal" in="SourceGraphic" in2="effect1_dropShadow" result="shape"/>
</filter>
<filter id="filter17_d" x="0" y="201" width="170" height="170" filterUnits="userSpaceOnUse" color-interpolation-filters="sRGB">
<feFlood flood-opacity="0" result="BackgroundImageFix"/>
<feColorMatrix in="SourceAlpha" type="matrix" values="0 0 0 0 0 0 0 0 0 0 0 0 0 0 0 0 0 0 127 0"/>
<feOffset dx="4" dy="4"/>
<feGaussianBlur stdDeviation="5"/>
<feColorMatrix type="matrix" values="0 0 0 0 0 0 0 0 0 0 0 0 0 0 0 0 0 0 0.25 0"/>
<feBlend mode="normal" in2="BackgroundImageFix" result="effect1_dropShadow"/>
<feBlend mode="normal" in="SourceGraphic" in2="effect1_dropShadow" result="shape"/>
</filter>
<filter id="filter18_d" x="15.3008" y="217.301" width="130.398" height="130.398" filterUnits="userSpaceOnUse" color-interpolation-filters="sRGB">
<feFlood flood-opacity="0" result="BackgroundImageFix"/>
<feColorMatrix in="SourceAlpha" type="matrix" values="0 0 0 0 0 0 0 0 0 0 0 0 0 0 0 0 0 0 127 0"/>
<feOffset/>
<feGaussianBlur stdDeviation="1.84962"/>
<feColorMatrix type="matrix" values="0 0 0 0 0 0 0 0 0 0 0 0 0 0 0 0 0 0 0.25 0"/>
<feBlend mode="normal" in2="BackgroundImageFix" result="effect1_dropShadow"/>
<feBlend mode="normal" in="SourceGraphic" in2="effect1_dropShadow" result="shape"/>
</filter>
<filter id="filter19_d" x="66" y="794" width="23" height="23" filterUnits="userSpaceOnUse" color-interpolation-filters="sRGB">
<feFlood flood-opacity="0" result="BackgroundImageFix"/>
<feColorMatrix in="SourceAlpha" type="matrix" values="0 0 0 0 0 0 0 0 0 0 0 0 0 0 0 0 0 0 127 0"/>
<feOffset dy="4"/>
<feGaussianBlur stdDeviation="2"/>
<feColorMatrix type="matrix" values="0 0 0 0 0 0 0 0 0 0 0 0 0 0 0 0 0 0 0.25 0"/>
<feBlend mode="normal" in2="BackgroundImageFix" result="effect1_dropShadow"/>
<feBlend mode="normal" in="SourceGraphic" in2="effect1_dropShadow" result="shape"/>
</filter>
</defs>
</svg>
