<svg width="253" height="253" viewBox="0 0 253 253" fill="none" xmlns="http://www.w3.org/2000/svg">
<g filter="url(#filter0_d)">
<circle cx="118.442" cy="118.276" r="90" transform="rotate(-159.46 118.442 118.276)" fill="#34E7E4"/>
<path d="M119.842 43.0799C129.845 44.1286 142.929 31.666 142.929 31.666C128.845 27.6671 114.462 27.2737 100.853 29.9987C100.853 29.9987 102.622 36.596 107.555 40.3296C110.172 42.3111 114.465 42.6451 117.853 42.9087C118.564 42.964 119.235 43.0162 119.842 43.0799Z" fill="#33D9B2"/>
<path d="M67.4286 119.208C67.4286 119.208 90.349 105.581 92.408 91.016C93.3793 84.1448 92.9595 79.7599 90.2285 73.3802C87.675 67.4154 79.9469 60.3289 79.9469 60.3289C79.9469 60.3289 91.1647 54.0622 89.1455 48.6038C87.2538 43.4903 81.1172 45.6304 75.57 47.565C74.6118 47.8991 73.6712 48.2272 72.7731 48.5106C63.1063 51.5616 59.3026 58.2177 54.9313 67.3635C45.9502 86.1541 67.4286 119.208 67.4286 119.208Z" fill="#33D9B2"/>
<path d="M86.8644 202.555C96.1623 206.038 105.673 207.884 115.078 208.237C115.078 208.237 112.655 192.507 108.107 183.603C103.785 175.14 100.47 170.494 93.2114 164.36C89.0413 160.837 84.4689 159.784 80.0228 158.761C74.8693 157.576 69.8857 156.429 65.8953 151.517C63.1297 148.113 62.4505 144.668 61.7611 141.171C61.1227 137.933 60.4757 134.651 58.1548 131.317L57.9785 131.064C54.9772 126.752 53.0874 124.036 48.5362 121.26C41.7401 117.115 28.4176 117.979 28.4176 117.979C28.3015 154.533 50.628 188.978 86.8644 202.555Z" fill="#33D9B2"/>
<path fill-rule="evenodd" clip-rule="evenodd" d="M202.72 149.853C198.238 161.816 191.481 172.263 183.125 180.887C183.125 180.887 177.663 157.317 165.687 151.218C158.98 147.802 153.284 149.34 147.101 151.009C142.934 152.133 138.545 153.318 133.477 153.085C130.688 152.957 128.144 153.008 125.741 153.056C119.077 153.189 113.493 153.3 106.735 149.519C106.021 149.119 105.322 148.742 104.642 148.374C100.004 145.87 96.2514 143.844 94.5884 138.515C92.585 132.095 96.5532 127.884 100.978 123.188C102.45 121.626 103.972 120.01 105.342 118.242C108.55 114.101 112.461 111.969 116.259 109.898C120.769 107.439 125.118 105.068 127.939 99.5232C129.762 95.9408 130.126 92.9237 130.512 89.7314C130.792 87.4134 131.083 85.0029 131.952 82.2167C132.408 80.7531 132.716 79.4166 133.006 78.1569C133.708 75.1051 134.307 72.5035 136.666 69.6351C139.246 66.4976 142.033 65.4454 145.234 64.2364C146.707 63.6802 148.268 63.0909 149.936 62.2502C151.937 61.2425 153.701 60.2707 155.362 59.3561C160.298 56.638 164.317 54.4249 170.873 53.2755C174.372 52.6621 179.939 52.5318 179.939 52.5318C185.903 58.1154 191.032 64.4506 195.229 71.3256C195.229 71.3256 184.986 93.5502 191.625 105.81C193.462 109.204 192.917 116.462 196.474 118.886C201.536 122.335 208.424 121.029 208.424 121.029C208.129 130.633 206.279 140.354 202.72 149.853Z" fill="#33D9B2"/>
</g>
<defs>
<filter id="filter0_d" x="0.585693" y="0.420166" width="251.711" height="251.711" filterUnits="userSpaceOnUse" color-interpolation-filters="sRGB">
<feFlood flood-opacity="0" result="BackgroundImageFix"/>
<feColorMatrix in="SourceAlpha" type="matrix" values="0 0 0 0 0 0 0 0 0 0 0 0 0 0 0 0 0 0 127 0"/>
<feOffset dx="8" dy="8"/>
<feGaussianBlur stdDeviation="5"/>
<feColorMatrix type="matrix" values="0 0 0 0 0 0 0 0 0 0 0 0 0 0 0 0 0 0 0.25 0"/>
<feBlend mode="normal" in2="BackgroundImageFix" result="effect1_dropShadow"/>
<feBlend mode="normal" in="SourceGraphic" in2="effect1_dropShadow" result="shape"/>
</filter>
</defs>
</svg>
