<svg width="266" height="207" viewBox="0 0 266 207" fill="none" xmlns="http://www.w3.org/2000/svg">
<g filter="url(#filter0_d)">
<path d="M25.9024 165.352C22.2805 164.115 20.0061 163.895 16.7171 161.932C15.3456 161.113 14.6494 160.536 13.3719 159.576C11.8374 158.422 10.9535 157.794 9.5541 156.478C8.06969 155.083 7.30506 154.219 6.03873 152.621C4.71197 150.947 4.04025 149.943 2.95807 148.099C1.87589 146.256 -0.574983 136.469 0.123096 130.923C0.821174 125.376 0.800495 121.663 4.12985 117.185C5.25819 115.668 5.99821 114.871 7.45622 113.67C9.10627 112.311 10.245 111.834 12.1245 110.82C14.4879 109.545 15.9483 109.107 18.3803 107.97C20.8349 106.822 24.6361 104.968 24.6361 104.968C24.6361 104.968 26.2426 104.189 26.7151 103.619C27.1876 103.049 25.9834 95.1909 28.3783 90.7172C29.4242 88.7635 30.2789 87.8034 31.7992 86.1951C34.6312 83.199 36.6721 81.7895 40.4553 80.1719L47.0983 77.9688C47.0983 77.9688 52.1629 76.3037 55.5276 76.1068C56.7692 76.0341 58.7122 76.1068 58.7122 76.1068C58.7122 76.1068 58.9942 75.0871 59.232 74.4537C60.3465 71.4847 61.7995 71.3267 63.9288 67.8405C66.0582 64.3542 79.5216 55.3225 91.475 54.009C101.108 52.9505 107.017 54.477 115.912 58.3411L116.237 58.482C120.833 60.4777 123.658 61.7043 127.422 65.1624C131.284 68.7102 132.665 71.5223 135.228 76.1068C138.797 82.4898 140.143 86.5274 141.777 93.6634C142.382 96.3065 142.913 100.141 143.133 101.832C143.729 101.969 144.64 102.235 145.992 102.688C152.554 104.884 156.415 104.968 162.264 109.718C162.264 109.718 169.461 115.541 172.225 120.605C175.31 126.259 175.808 131.826 175.986 136.68C176.212 142.845 173.72 146.522 170.297 151.405C166.874 156.289 158.069 161.536 148.6 164.06C145.979 164.758 144.447 164.875 141.777 165.352C97.222 173.304 68.749 179.986 25.9024 165.352Z" fill="#ECF0F1"/>
</g>
<defs>
<filter id="filter0_d" x="0" y="0.681763" width="266" height="206.318" filterUnits="userSpaceOnUse" color-interpolation-filters="sRGB">
<feFlood flood-opacity="0" result="BackgroundImageFix"/>
<feColorMatrix in="SourceAlpha" type="matrix" values="0 0 0 0 0 0 0 0 0 0 0 0 0 0 0 0 0 0 127 0"/>
<feOffset dx="47" dy="-10"/>
<feGaussianBlur stdDeviation="21.5"/>
<feColorMatrix type="matrix" values="0 0 0 0 0 0 0 0 0 0 0 0 0 0 0 0 0 0 0.25 0"/>
<feBlend mode="normal" in2="BackgroundImageFix" result="effect1_dropShadow"/>
<feBlend mode="normal" in="SourceGraphic" in2="effect1_dropShadow" result="shape"/>
</filter>
</defs>
</svg>
