<svg width="276" height="276" viewBox="0 0 276 276" fill="none" xmlns="http://www.w3.org/2000/svg">
<g filter="url(#filter0_d)">
<circle cx="137.568" cy="137.568" r="106.867" transform="rotate(-159.46 137.568 137.568)" fill="#34E7E4"/>
<g filter="url(#filter1_d)">
<path d="M37.495 100.073C16.7871 155.342 44.8044 216.934 100.073 237.642C103.133 238.788 106.213 239.785 109.304 240.637C112.395 241.488 123.452 239.673 132.397 238.177C138.132 237.218 141.745 237.697 146.977 235.162C150.333 233.536 152.786 232.833 154.811 229.701C156.64 226.873 156.802 224.662 156.738 221.294C156.681 218.31 156.358 216.497 154.958 213.861C151.906 208.112 146.314 208.454 140.375 205.789C135.888 203.775 133.057 203.409 128.581 201.37C123.563 199.083 121.227 196.856 116.223 194.539C110.948 192.096 107.417 192.045 102.284 189.316C97.8091 186.937 95.5966 185.068 91.588 181.966C87.7163 178.971 85.6868 177.106 82.1065 173.767C79.4322 171.274 73.83 170.477 75.4397 167.194C76.3992 165.237 74.6974 164.606 80.2991 164.45C85.9008 164.293 98.3103 164.025 98.3103 164.025C98.3103 164.025 109.236 162.494 114.096 161.706C118.956 160.919 119.656 154.81 122.571 149.964C125.031 145.877 127.315 143.783 128.116 139.081C129.077 133.446 127.635 129.925 125.262 124.724C121.006 115.395 113.886 113.333 105.486 107.451C98.3361 102.445 93.8424 100.356 86.0869 96.3518C80.6624 93.551 75.3305 94.7094 71.9869 89.6016C69.6452 86.0244 70.4336 83.1062 69.7235 78.8901C68.2674 70.2457 67.8854 56.5184 67.8854 56.5184C54.6657 67.8634 44.039 82.6076 37.495 100.073Z" fill="#33D9B2"/>
<path d="M183.443 128.264C177.791 132.773 173.736 136.83 166.568 135.88C161.641 135.227 155.139 134.708 155.417 129.746C155.572 126.966 158.931 126.555 159.355 123.803C159.859 120.527 155.994 119.19 156.288 115.889C156.682 111.472 159.644 108.92 163.799 107.372C168.466 105.635 174.063 114.386 176.29 109.933C177.671 107.171 174.641 105.23 174.885 102.152C175.149 98.8233 174.866 95.5721 177.885 94.1457C181.434 92.4685 183.939 96.2565 186.615 99.1284C189.288 101.997 189.841 104.422 190.968 108.178C192.088 111.908 193.176 114.259 192.32 118.058C191.16 123.212 187.572 124.969 183.443 128.264Z" fill="#33D9B2"/>
</g>
<g filter="url(#filter2_d)">
<path d="M164.309 44.8776C167.273 40.7345 175.063 37.4949 175.063 37.4949C143.296 25.5925 109.44 29.7873 82.4591 46.0017C82.4591 46.0017 88.3234 50.2766 92.0246 53.0908C94.9818 55.3393 96.7604 56.4579 99.5399 58.9227C102.493 61.5418 103.982 63.2006 106.618 66.1395C109.383 69.2226 110.752 71.1085 113.321 74.357C116.445 78.3079 118.096 80.6013 121.132 84.6201C124.268 88.7702 124.892 92.2503 129.122 95.2763C132.759 97.8776 135.451 98.4641 139.845 99.2936C142.681 99.8291 144.388 100.435 147.215 99.8544C151.427 98.9895 153.125 96.4766 156.148 93.4192C161.287 88.2205 162.842 83.9133 165.015 76.9332C166.549 72.0041 168.395 68.9217 167.209 63.8976C166.164 59.4759 161.148 58.7021 160.827 54.1701C160.553 50.3045 162.054 48.0293 164.309 44.8776Z" fill="#33D9B2"/>
</g>
<g filter="url(#filter3_d)">
<path d="M210.219 161.446C219.704 154.166 237.642 175.063 237.642 175.063C243.329 159.883 245.341 144.227 244.122 129.071C244.122 129.071 238.883 124.66 235 122.719C232.174 121.306 230.375 118.753 227.423 119.88C224.774 120.891 224.743 123.442 223.503 125.992C222.512 128.029 222.866 129.642 221.467 131.424C220.395 132.792 219.584 133.517 217.984 134.195C215.141 135.4 213.125 134.123 210.113 133.447C206.826 132.709 205.354 129.842 202.035 130.42C199.673 130.832 198.791 132.289 196.774 133.585C192.663 136.225 189.545 137.015 186.672 140.967C184.164 144.415 184.337 147.197 182.842 151.189C181.796 153.98 180.395 155.365 180.163 158.337C179.835 162.561 181.546 164.933 183.651 168.61C188.698 177.431 202.429 192.435 205.499 182.747C206.18 180.596 205.891 179.245 206.024 176.993C206.274 172.765 204.111 169.932 206.012 166.147C207.118 163.946 208.265 162.946 210.219 161.446Z" fill="#33D9B2"/>
</g>
</g>
<defs>
<filter id="filter0_d" x="-2" y="-2" width="295.137" height="295.137" filterUnits="userSpaceOnUse" color-interpolation-filters="sRGB">
<feFlood flood-opacity="0" result="BackgroundImageFix"/>
<feColorMatrix in="SourceAlpha" type="matrix" values="0 0 0 0 0 0 0 0 0 0 0 0 0 0 0 0 0 0 127 0"/>
<feOffset dx="8" dy="8"/>
<feGaussianBlur stdDeviation="5"/>
<feColorMatrix type="matrix" values="0 0 0 0 0 0 0 0 0 0 0 0 0 0 0 0 0 0 0.25 0"/>
<feBlend mode="normal" in2="BackgroundImageFix" result="effect1_dropShadow"/>
<feBlend mode="normal" in="SourceGraphic" in2="effect1_dropShadow" result="shape"/>
</filter>
<filter id="filter1_d" x="26.6724" y="56.5184" width="169.955" height="192.336" filterUnits="userSpaceOnUse" color-interpolation-filters="sRGB">
<feFlood flood-opacity="0" result="BackgroundImageFix"/>
<feColorMatrix in="SourceAlpha" type="matrix" values="0 0 0 0 0 0 0 0 0 0 0 0 0 0 0 0 0 0 127 0"/>
<feOffset dy="4"/>
<feGaussianBlur stdDeviation="2"/>
<feColorMatrix type="matrix" values="0 0 0 0 0 0 0 0 0 0 0 0 0 0 0 0 0 0 0.25 0"/>
<feBlend mode="normal" in2="BackgroundImageFix" result="effect1_dropShadow"/>
<feBlend mode="normal" in="SourceGraphic" in2="effect1_dropShadow" result="shape"/>
</filter>
<filter id="filter2_d" x="78.4591" y="30.6723" width="100.604" height="77.4185" filterUnits="userSpaceOnUse" color-interpolation-filters="sRGB">
<feFlood flood-opacity="0" result="BackgroundImageFix"/>
<feColorMatrix in="SourceAlpha" type="matrix" values="0 0 0 0 0 0 0 0 0 0 0 0 0 0 0 0 0 0 127 0"/>
<feOffset dy="4"/>
<feGaussianBlur stdDeviation="2"/>
<feColorMatrix type="matrix" values="0 0 0 0 0 0 0 0 0 0 0 0 0 0 0 0 0 0 0.25 0"/>
<feBlend mode="normal" in2="BackgroundImageFix" result="effect1_dropShadow"/>
<feBlend mode="normal" in="SourceGraphic" in2="effect1_dropShadow" result="shape"/>
</filter>
<filter id="filter3_d" x="176.123" y="119.6" width="72.3415" height="74.2882" filterUnits="userSpaceOnUse" color-interpolation-filters="sRGB">
<feFlood flood-opacity="0" result="BackgroundImageFix"/>
<feColorMatrix in="SourceAlpha" type="matrix" values="0 0 0 0 0 0 0 0 0 0 0 0 0 0 0 0 0 0 127 0"/>
<feOffset dy="4"/>
<feGaussianBlur stdDeviation="2"/>
<feColorMatrix type="matrix" values="0 0 0 0 0 0 0 0 0 0 0 0 0 0 0 0 0 0 0.25 0"/>
<feBlend mode="normal" in2="BackgroundImageFix" result="effect1_dropShadow"/>
<feBlend mode="normal" in="SourceGraphic" in2="effect1_dropShadow" result="shape"/>
</filter>
</defs>
</svg>
