<svg width="244" height="254" viewBox="0 0 244 254" fill="none" xmlns="http://www.w3.org/2000/svg">
<g filter="url(#filter0_d)">
<path d="M91.9038 118.355C102.789 119.606 112.475 137.02 112.475 137.02C112.475 137.02 130.746 144.972 133.047 155.684C134.092 160.552 133.553 163.609 132.383 168.515C131.236 173.324 129.293 175.618 127.301 180.165C125.542 184.18 122.782 190.439 122.782 190.439C122.782 190.439 134.567 186.056 141.468 181.943C145.731 179.402 148.38 178.189 151.927 174.7C155.2 171.481 156.905 169.363 158.907 165.243C162.014 158.849 162.082 154.415 161.834 147.397C161.636 141.772 159.051 133.325 159.051 133.325L135.344 111.815L111.636 90.3052C111.636 90.3052 102.978 88.552 97.3604 88.8997C90.352 89.3335 85.9452 89.8316 79.8822 93.5441C75.976 95.936 74.0335 97.8377 71.1468 101.408C68.0182 105.276 67.0684 108.03 64.9527 112.519C61.5276 119.787 58.3079 131.942 58.3079 131.942C58.3079 131.942 64.2704 128.587 68.0958 126.447C72.4277 124.024 74.5231 121.868 79.1982 120.26C83.967 118.62 86.9579 117.787 91.9038 118.355Z" fill="#C0392B"/>
<path d="M133.047 155.685L159.052 133.325L160.869 140.395C160.534 141.269 159.006 143.147 157.736 144.857C154.118 149.726 149.425 154.507 147.549 156.588C141.164 163.67 133.04 165.576 133.04 165.576C133.712 162.214 133.868 159.508 133.047 155.685Z" fill="#91261B"/>
<path d="M197.126 39.4357L200.666 39.8194L201.391 43.3052C201.391 43.3052 200.644 49.8386 199.925 53.9944C198.641 61.4176 195.449 72.7916 195.449 72.7916L187.094 95.6113C187.094 95.6113 179.993 109.897 173.86 118.011C169.012 124.425 165.675 127.543 160.022 133.263C153.138 140.228 149.093 143.985 141.495 150.153C136.808 153.959 134.291 156.301 129.16 159.464C123.118 163.188 119.103 164.049 112.759 167.206C110.604 168.279 107.258 169.992 107.258 169.992L106.38 169.195L96.9523 174.545L86.792 165.327L77.1335 156.564L76.6317 156.108L81.0422 146.206L80.1642 145.409C80.1642 145.409 81.545 141.914 82.4036 139.664C84.9306 133.044 85.3981 128.965 88.5191 122.59C91.1694 117.176 93.2566 114.444 96.5896 109.41C101.992 101.25 105.339 96.8596 111.604 89.3329C116.749 83.1516 119.528 79.5281 125.442 74.0807C132.923 67.1904 146.453 58.7374 146.453 58.7374L168.355 48.209C168.355 48.209 179.366 43.9287 186.629 41.9307C190.696 40.8121 197.126 39.4357 197.126 39.4357Z" fill="#E0E0E0"/>
<path d="M187.094 95.6113L195.449 72.7916C195.449 72.7916 197.227 66.4553 198.663 60.1547L194.283 56.1803C194.283 56.1803 187.074 72.6556 181.431 82.6964C174.079 95.7768 169.809 103.242 160.004 114.63C157.87 117.109 156.386 118.702 154.375 120.834C142.241 133.703 135.11 141.873 119.627 150.814C111.303 155.622 97.2234 160.887 97.2234 160.887L106.38 169.195L107.258 169.992C107.258 169.992 110.603 168.279 112.759 167.206C119.103 164.049 123.118 163.188 129.16 159.464C134.291 156.301 136.808 153.959 141.495 150.153C149.093 143.985 153.138 140.228 160.022 133.263C165.675 127.543 169.012 124.425 173.86 118.011C179.993 109.897 187.094 95.6113 187.094 95.6113Z" fill="#C0BCBC"/>
<path d="M198.564 60.536L180.251 43.92C180.251 43.92 200.721 34.2135 203.48 36.7173C206.24 39.2211 198.564 60.536 198.564 60.536Z" fill="#C0392B"/>
<path d="M203.48 36.7173C206.24 39.2211 198.564 60.536 198.564 60.536L194.136 56.5186C194.136 56.5186 195.809 52.8682 196.891 50.5338C198.21 47.6863 198.941 46.0855 200.295 43.2532C201.519 40.6916 203.48 36.7173 203.48 36.7173Z" fill="#91261B"/>
<path d="M71.0093 167.334C74.4031 163.938 79.75 158.702 79.75 158.702L93.9121 171.551C93.9121 171.551 89.2189 177.381 86.1687 181.088C82.9488 185.001 81.205 187.245 77.8501 191.058C75.9032 193.27 74.8452 194.554 72.778 196.648C69.218 200.254 67.0985 202.376 63.1219 205.086C60.5353 206.849 59.0341 207.531 56.4132 208.873C53.2838 210.476 51.5525 211.011 48.4311 212.46C45.2944 213.916 40.3903 216.312 40.3903 216.312C40.3903 216.312 42.2994 211.199 43.4445 207.935C44.5839 204.688 44.9489 202.913 46.2404 199.643C47.3221 196.904 47.855 195.344 49.3588 192.599C51.6707 188.378 53.577 186.063 56.8208 182.17C58.7043 179.91 59.8795 178.732 61.8928 176.58C65.3622 172.871 67.4267 170.918 71.0093 167.334Z" fill="#D35400"/>
<path d="M74.7274 168.648C77.7676 165.654 82.845 161.51 82.845 161.51L86.831 165.127L90.817 168.743C90.817 168.743 87.1849 174.198 84.4995 177.515C81.7918 180.858 80.1288 182.677 77.0696 185.704C73.9498 188.791 72.1175 190.509 68.7397 193.076C64.208 196.519 61.5064 197.704 56.8665 200.219C55.469 200.977 53.2905 202.094 53.2905 202.094C53.2905 202.094 54.1907 199.817 54.8092 198.353C56.8626 193.491 57.7803 190.687 60.7677 185.843C62.9945 182.232 64.5275 180.242 67.2975 176.837C70.0137 173.499 71.6621 171.668 74.7274 168.648Z" fill="#F39C12"/>
<path d="M79.0786 167.623C80.9705 165.476 84.7755 163.262 84.7755 163.262L86.9565 165.24L89.1375 167.219C89.1375 167.219 87.3028 171.221 85.3489 173.312C83.5395 175.249 82.202 176.049 80.0314 177.256C77.7191 178.541 74.0563 179.459 74.0563 179.459C74.0563 179.459 74.6139 175.724 75.6695 173.298C76.6603 171.021 77.3266 169.612 79.0786 167.623Z" fill="#F1C40F"/>
<g filter="url(#filter1_d)">
<ellipse cx="158.439" cy="86.1085" rx="17.7839" ry="18.3256" transform="rotate(42.2177 158.439 86.1085)" fill="#4E342E"/>
</g>
<ellipse cx="158.431" cy="85.8654" rx="13.5496" ry="13.9623" transform="rotate(42.2177 158.431 85.8654)" fill="#B2EBF2"/>
<path d="M76.6317 156.108L81.0422 146.206L106.38 169.195L96.9523 174.545L76.6317 156.108Z" fill="#4E342E"/>
<path d="M106.38 169.195L96.9523 174.545L86.4157 164.985L97.2234 160.887L106.38 169.195Z" fill="#3E2723"/>
</g>
<defs>
<filter id="filter0_d" x="6.10352e-05" y="0" width="251.949" height="261.1" filterUnits="userSpaceOnUse" color-interpolation-filters="sRGB">
<feFlood flood-opacity="0" result="BackgroundImageFix"/>
<feColorMatrix in="SourceAlpha" type="matrix" values="0 0 0 0 0 0 0 0 0 0 0 0 0 0 0 0 0 0 127 0"/>
<feOffset dx="4" dy="4"/>
<feGaussianBlur stdDeviation="2"/>
<feColorMatrix type="matrix" values="0 0 0 0 0 0 0 0 0 0 0 0 0 0 0 0 0 0 0.25 0"/>
<feBlend mode="normal" in2="BackgroundImageFix" result="effect1_dropShadow"/>
<feBlend mode="normal" in="SourceGraphic" in2="effect1_dropShadow" result="shape"/>
</filter>
<filter id="filter1_d" x="140.408" y="68.0253" width="43.0611" height="40.1665" filterUnits="userSpaceOnUse" color-interpolation-filters="sRGB">
<feFlood flood-opacity="0" result="BackgroundImageFix"/>
<feColorMatrix in="SourceAlpha" type="matrix" values="0 0 0 0 0 0 0 0 0 0 0 0 0 0 0 0 0 0 127 0"/>
<feOffset dx="6" dy="3"/>
<feGaussianBlur stdDeviation="0.5"/>
<feColorMatrix type="matrix" values="0 0 0 0 0.752941 0 0 0 0 0.737255 0 0 0 0 0.737255 0 0 0 1 0"/>
<feBlend mode="normal" in2="BackgroundImageFix" result="effect1_dropShadow"/>
<feBlend mode="normal" in="SourceGraphic" in2="effect1_dropShadow" result="shape"/>
</filter>
</defs>
</svg>
